<svg width="540" height="540" viewBox="0 0 540 540" fill="none" xmlns="http://www.w3.org/2000/svg">
	<g clip-path="url(#clip0)">
		<path fill="#ff9800" d="M0.444353 50.323C0.66653 86.2045 1.11088 101.868 2.11068 104.756C5.6655 115.31 16.4411 125.974 27.3277 129.751C32.3267 131.528 37.9922 131.751 82.3164 131.751H131.751V82.3164C131.751 37.9922 131.528 32.3267 129.751 27.3277C125.974 16.441 115.31 5.66547 104.756 2.11065C101.868 1.11085 86.2045 0.666501 50.323 0.444325L0 -2.80462e-05L0.444353 50.323Z"/>
		<path fill="url(#teal-grad)" d="M157.412 6.10985C161.633 15.3302 162.189 24.6616 162.3 80.3168V132.306L281.164 132.528L400.029 132.862H402.25C405.011 132.862 407.25 135.1 407.25 137.862V140.082V270.056V400.029V402.25C407.25 405.011 405.011 407.25 402.25 407.25H400.029H270.056H140.082H137.862C135.1 407.25 132.862 405.011 132.862 402.25V400.029L132.528 281.164L132.306 162.3H80.3168C24.6616 162.189 15.3302 161.633 6.10985 157.412L0.111084 154.635V294.828C0.111084 389.809 0.555437 438.243 1.33305 445.02C3.33264 461.572 10.2201 480.012 19.3294 493.232C24.2172 500.453 36.2148 512.672 43.8799 518.449C57.877 529.002 76.9842 536.556 95.0915 538.778C102.09 539.667 171.409 540 322.6 540H540V322.489C540 171.409 539.667 102.09 538.778 95.0915C536.667 77.5396 529.669 59.5433 519.449 45.1018C514.228 37.6589 500.786 24.5505 493.232 19.3294C480.012 10.2201 460.905 3.11047 444.686 1.22197C438.799 0.55544 380.922 0.111087 294.828 0.111087H154.635L157.412 6.10985Z"/>
	</g>
	<defs>
		<clipPath id="clip0">
			<rect width="540" height="540" fill="white"/>
		</clipPath>
		<radialGradient id="teal-grad" cx="100%" cy="100%" r="120%">
			<stop offset="0%" style="stop-color:#00bfa5" />
			<stop offset="100%" style="stop-color:#00695c" />
		</radialGradient>
	</defs>
</svg>
