<svg version="1" xmlns="http://www.w3.org/2000/svg" width="405.333" height="405.333" viewBox="0 0 304.000000 304.000000"><path d="M2.2 31.7c.3 25.8.5 29.2 2.2 32.3 2.6 4.9 5.5 7.9 10.1 10.3 3.8 2.1 5.5 2.2 33.3 2.5l29.3.3-.3-28.8c-.3-27.3-.4-29-2.5-32.8C71.9 10.9 68.9 8 64 5.4c-3.1-1.7-6.5-1.9-32.8-2.2L1.9 2.9l.3 28.8z"/><path d="M94.5 4.7c2.1 5 2.5 11.4 2.5 40.5V77h130v150H77V97H44.7c-25.8 0-33.4-.3-37.3-1.5-2.7-.8-5-1.5-5.2-1.5-.1 0-.1 35.9 0 79.7.3 78.4.4 79.9 2.4 85.3 4.3 11.1 7.7 16.5 15.3 24 8.7 8.7 16.5 13.2 27.7 16 7.5 1.9 11.5 2 131.1 2H302V178.7c0-118.6-.1-122.6-2-130.1-2.9-11.3-7.3-19-16-27.6-8.6-8.7-16.3-13.1-27.6-16-7.4-1.9-11.3-2-85.2-2-73.3 0-77.4.1-76.7 1.7z"/></svg>